Coordinates
version=1
nRows=8
nColumns=40
inDegrees=yes

Units are S.I. units (second, meters, Newtons, ...)
If the header above contains a line with 'inDegrees', this indicates whether rotational values are in degrees (yes) or radians (no).

endheader
time	pelvis_tilt	pelvis_list	pelvis_rotation	pelvis_tx	pelvis_ty	pelvis_tz	hip_flexion_r	hip_adduction_r	hip_rotation_r	knee_angle_r	knee_angle_r_beta	ankle_angle_r	subtalar_angle_r	mtp_angle_r	hip_flexion_l	hip_adduction_l	hip_rotation_l	knee_angle_l	knee_angle_l_beta	ankle_angle_l	subtalar_angle_l	mtp_angle_l	lumbar_extension	lumbar_bending	lumbar_rotation	arm_flex_r	arm_add_r	arm_rot_r	elbow_flex_r	pro_sup_r	wrist_flex_r	wrist_dev_r	arm_flex_l	arm_add_l	arm_rot_l	elbow_flex_l	pro_sup_l	wrist_flex_l	wrist_dev_l
      6.42500000	    -18.95599251	     -4.80029898	      5.36653449	     -0.51083522	      0.65227017	     -0.88941530	     80.14097583	    -22.71388975	    -10.07586673	    101.68493165	      1.77473686	     41.08906366	      0.00000000	      0.00000000	     89.45974134	    -23.93908344	     -2.36488659	    101.27016181	      1.76749776	     31.91402417	      0.00000000	      0.00000000	    -29.94686925	      4.43036839	      3.69699514	     31.08791472	    -58.53260411	     89.58465366	    108.49035865	     88.66104395	      0.00000000	      0.00000000	     33.92439897	    -51.26818750	     89.71160250	    109.93847346	     88.67116464	      0.00000000	      0.00000000
      6.43000000	    -18.92829462	     -4.65380632	      5.33230951	     -0.51078116	      0.65239445	     -0.88937063	     80.18555376	    -22.71550558	     -9.89472824	    101.70985251	      1.77517181	     41.06111325	      0.00000000	      0.00000000	     89.29841012	    -23.95167118	     -2.54415024	    101.24585833	      1.76707358	     31.94350982	      0.00000000	      0.00000000	    -30.00683594	      4.26417521	      3.65825194	     31.10245881	    -58.49492916	     89.58419202	    108.46738121	     88.67109304	      0.00000000	      0.00000000	     33.94283866	    -51.31011609	     89.71244290	    109.95594539	     88.67502832	      0.00000000	      0.00000000
      6.43500000	    -18.95513049	     -4.73985670	      5.36470052	     -0.51086304	      0.65228998	     -0.88941223	     80.17342289	    -22.72262598	     -9.99939509	    101.68748515	      1.77478142	     41.08135143	      0.00000000	      0.00000000	     89.40349894	    -23.90512422	     -2.42010508	    101.25510145	      1.76723490	     31.95090874	      0.00000000	      0.00000000	    -29.99329282	      4.35736234	      3.68721283	     31.09148932	    -58.53829601	     89.58493080	    108.52131443	     88.66271573	      0.00000000	      0.00000000	     33.94977406	    -51.28089365	     89.71236775	    109.96654616	     88.66858665	      0.00000000	      0.00000000
      6.44000000	    -18.93273254	     -4.67640534	      5.29902581	     -0.51078998	      0.65234823	     -0.88929313	     80.18277937	    -22.65589242	     -9.91231783	    101.69464394	      1.77490637	     41.11544872	      0.00000000	      0.00000000	     89.32970305	    -23.97824908	     -2.49592827	    101.25936387	      1.76730930	     31.95427049	      0.00000000	      0.00000000	    -30.04631351	      4.26206175	      3.73552889	     31.07692457	    -58.53475179	     89.58387430	    108.51594057	     88.66300285	      0.00000000	      0.00000000	     33.96363629	    -51.27690254	     89.71315530	    109.96354103	     88.67152208	      0.00000000	      0.00000000
      6.44500000	    -18.92390737	     -4.66050335	      5.29526432	     -0.51076301	      0.65233007	     -0.88927134	     80.19994662	    -22.64759921	     -9.87551751	    101.73851115	      1.77567200	     41.11788489	      0.00000000	      0.00000000	     89.29630770	    -23.97053527	     -2.50967445	    101.23681196	      1.76691569	     32.00535921	      0.00000000	      0.00000000	    -30.08722225	      4.23492985	      3.74473778	     31.03642767	    -58.57815485	     89.58262892	    108.56970012	     88.65539151	      0.00000000	      0.00000000	     33.96153212	    -51.30263936	     89.71348870	    110.10858746	     88.65931616	      0.00000000	      0.00000000
      6.45000000	    -18.95211782	     -4.65107192	      5.29327258	     -0.51079904	      0.65233048	     -0.88922231	     80.22612127	    -22.65098505	     -9.87708766	    101.71225062	      1.77521366	     41.08214941	      0.00000000	      0.00000000	     89.33025829	    -23.95951566	     -2.50352054	    101.24721322	      1.76709723	     31.91153160	      0.00000000	      0.00000000	    -30.06341447	      4.21656088	      3.75249683	     31.05652153	    -58.54197012	     89.58486175	    108.53720937	     88.67023880	      0.00000000	      0.00000000	     33.98441248	    -51.27984646	     89.71335926	    109.99275408	     88.67204276	      0.00000000	      0.00000000
      6.45500000	    -19.04550130	     -4.80266705	      5.30573947	     -0.51096254	      0.65212182	     -0.88912554	     80.26975330	    -22.60038539	    -10.03520102	    101.67780465	      1.77461247	     41.07742277	      0.00000000	      0.00000000	     89.56237060	    -23.94434146	     -2.30431500	    101.25509891	      1.76723486	     31.92229456	      0.00000000	      0.00000000	    -29.96660702	      4.35153116	      3.81530739	     31.05006559	    -58.56380750	     89.58589144	    108.54226211	     88.66581756	      0.00000000	      0.00000000	     33.97321058	    -51.26730736	     89.71339260	    110.01585174	     88.67112347	      0.00000000	      0.00000000
      6.46000000	    -18.99551124	     -4.65086483	      5.27524473	     -0.51086848	      0.65230560	     -0.88914794	     80.27797455	    -22.59865675	     -9.83163561	    101.68468539	      1.77473256	     41.12714305	      0.00000000	      0.00000000	     89.37637185	    -23.97791850	     -2.51547725	    101.25125290	      1.76716773	     31.98581019	      0.00000000	      0.00000000	    -30.05838476	      4.17992841	      3.80397951	     31.02366367	    -58.56724570	     89.58480353	    108.54117141	     88.67239426	      0.00000000	      0.00000000	     34.01015607	    -51.24823578	     89.71388144	    109.99581591	     88.66946191	      0.00000000	      0.00000000
